<svg width="16" height="16" viewBox="0 0 16 16" fill="none" xmlns="http://www.w3.org/2000/svg">
<path fill-rule="evenodd" clip-rule="evenodd" d="M13 8.00001C13 8.22668 12.98 8.44001 12.9533 8.65334L14.36 9.75334C14.4867 9.85334 14.52 10.0333 14.44 10.18L13.1067 12.4867C13.0267 12.6333 12.8533 12.6933 12.7 12.6333L11.04 11.9667C10.6933 12.2267 10.32 12.4533 9.91335 12.62L9.66002 14.3867C9.64002 14.5467 9.50002 14.6667 9.33335 14.6667H6.66668C6.50002 14.6667 6.36002 14.5467 6.34002 14.3867L6.08668 12.62C5.68002 12.4533 5.30668 12.2333 4.96002 11.9667L3.30001 12.6333C3.15335 12.6867 2.97335 12.6333 2.89335 12.4867L1.56002 10.18C1.48002 10.0333 1.51335 9.85334 1.64002 9.75334L3.04668 8.65334C3.02002 8.44001 3.00002 8.22001 3.00002 8.00001C3.00002 7.78001 3.02002 7.56001 3.04668 7.34668L1.64002 6.24668C1.51335 6.14668 1.47335 5.96668 1.56002 5.82001L2.89335 3.51334C2.97335 3.36668 3.14668 3.30668 3.30001 3.36668L4.96002 4.03334C5.30668 3.77334 5.68002 3.54668 6.08668 3.38001L6.34002 1.61334C6.36002 1.45334 6.50002 1.33334 6.66668 1.33334H9.33335C9.50002 1.33334 9.64002 1.45334 9.66002 1.61334L9.91335 3.38001C10.32 3.54668 10.6933 3.76668 11.04 4.03334L12.7 3.36668C12.8467 3.31334 13.0267 3.36668 13.1067 3.51334L14.44 5.82001C14.52 5.96668 14.4867 6.14668 14.36 6.24668L12.9533 7.34668C12.98 7.56001 13 7.77334 13 8.00001ZM5.66668 8.00001C5.66668 9.28668 6.71335 10.3333 8.00001 10.3333C9.28668 10.3333 10.3333 9.28668 10.3333 8.00001C10.3333 6.71334 9.28668 5.66668 8.00001 5.66668C6.71335 5.66668 5.66668 6.71334 5.66668 8.00001Z" fill="#172B4D"/>
</svg>
