<svg width="24" height="24" viewBox="0 0 24 24" fill="none" xmlns="http://www.w3.org/2000/svg">
<path fill-rule="evenodd" clip-rule="evenodd" d="M12 9.33335C12.7334 9.33335 13.3334 8.73335 13.3334 8.00002C13.3334 7.26669 12.7334 6.66669 12 6.66669C11.2667 6.66669 10.6667 7.26669 10.6667 8.00002C10.6667 8.73335 11.2667 9.33335 12 9.33335ZM12 10.6667C11.2667 10.6667 10.6667 11.2667 10.6667 12C10.6667 12.7334 11.2667 13.3334 12 13.3334C12.7334 13.3334 13.3334 12.7334 13.3334 12C13.3334 11.2667 12.7334 10.6667 12 10.6667ZM10.6667 16C10.6667 15.2667 11.2667 14.6667 12 14.6667C12.7334 14.6667 13.3334 15.2667 13.3334 16C13.3334 16.7334 12.7334 17.3334 12 17.3334C11.2667 17.3334 10.6667 16.7334 10.6667 16Z" fill="#172B4D"/>
</svg>
